<?xml version="1.0" encoding="UTF-8" standalone="no"?><svg width="489" height="524" viewBox="0 0 489 524" fill="none" xmlns="http://www.w3.org/2000/svg">
<path opacity="0.28" d="M58.1933 340.944C190.636 179.709 199.273 193.386 377.783 152.357C485.752 100.532 454.081 -34.0699 632.59 12.7168C811.1 59.5036 773.67 117.087 643.387 355.34C513.104 593.592 164.003 489.941 108.579 497.859C53.1547 505.777 -74.2491 502.178 58.1933 340.944Z" fill="url(#paint0_linear)"/>
<g opacity="0.44" filter="url(#filter0_d)">
<path d="M165.22 295.56C277.724 184.1 283.204 195.083 421.304 177.86C506.906 147.064 493.297 43.073 624.656 92.1049C756.015 141.137 723.298 181.703 606.514 351.438C489.73 521.173 233.772 416.116 191.264 417.826C148.756 419.536 52.7171 407.02 165.22 295.56Z" fill="url(#paint1_linear)"/>
</g>
<g opacity="0.68" filter="url(#filter1_d)">
<path d="M273.235 290.808C346.224 218.496 349.779 225.622 439.374 214.448C494.909 194.469 486.08 127.003 571.301 158.813C656.522 190.623 635.297 216.942 559.531 327.06C483.766 437.178 317.709 369.02 290.132 370.13C262.554 371.239 200.247 363.119 273.235 290.808Z" fill="url(#paint2_linear)"/>
</g>
<defs>
<filter id="filter0_d" x="67.9694" y="0.110603" width="689.217" height="523.263" filterUnits="userSpaceOnUse" color-interpolation-filters="sRGB">
<feFlood flood-opacity="0" result="BackgroundImageFix"/>
<feColorMatrix in="SourceAlpha" type="matrix" values="0 0 0 0 0 0 0 0 0 0 0 0 0 0 0 0 0 0 127 0"/>
<feOffset dy="4"/>
<feGaussianBlur stdDeviation="20"/>
<feColorMatrix type="matrix" values="0 0 0 0 0 0 0 0 0 0 0 0 0 0 0 0 0 0 0.25 0"/>
<feBlend mode="normal" in2="BackgroundImageFix" result="effect1_dropShadow"/>
<feBlend mode="normal" in="SourceGraphic" in2="effect1_dropShadow" result="shape"/>
</filter>
<filter id="filter1_d" x="196.093" y="86.4861" width="475.239" height="367.574" filterUnits="userSpaceOnUse" color-interpolation-filters="sRGB">
<feFlood flood-opacity="0" result="BackgroundImageFix"/>
<feColorMatrix in="SourceAlpha" type="matrix" values="0 0 0 0 0 0 0 0 0 0 0 0 0 0 0 0 0 0 127 0"/>
<feOffset dy="4"/>
<feGaussianBlur stdDeviation="20"/>
<feColorMatrix type="matrix" values="0 0 0 0 0 0 0 0 0 0 0 0 0 0 0 0 0 0 0.25 0"/>
<feBlend mode="normal" in2="BackgroundImageFix" result="effect1_dropShadow"/>
<feBlend mode="normal" in="SourceGraphic" in2="effect1_dropShadow" result="shape"/>
</filter>
<linearGradient id="paint0_linear" x1="377" y1="3" x2="377" y2="513.629" gradientUnits="userSpaceOnUse">
<stop stop-color="#FF0066"/>
<stop offset="1" stop-color="#A40380"/>
</linearGradient>
<linearGradient id="paint1_linear" x1="432.179" y1="65.112" x2="392.976" y2="450.373" gradientUnits="userSpaceOnUse">
<stop stop-color="#FF0066"/>
<stop offset="1" stop-color="#A40380"/>
</linearGradient>
<linearGradient id="paint2_linear" x1="446.429" y1="141.301" x2="420.996" y2="391.245" gradientUnits="userSpaceOnUse">
<stop stop-color="#FF0066"/>
<stop offset="1" stop-color="#A40380"/>
</linearGradient>
</defs>
</svg>
