<?xml version="1.0" encoding="UTF-8" standalone="no"?><svg width="482" height="484" viewBox="0 0 482 484" fill="none" xmlns="http://www.w3.org/2000/svg">
<mask id="mask0" mask-type="alpha" maskUnits="userSpaceOnUse" x="0" y="0" width="482" height="484">
<path d="M241 483.861C304.917 483.861 366.216 458.372 411.413 413.001C456.609 367.63 482 306.094 482 241.93C482 177.767 456.609 116.231 411.413 70.8598C366.216 25.489 304.917 0 241 0C177.083 0 115.784 25.489 70.5873 70.8598C25.391 116.231 0 177.767 0 241.93C0 306.094 25.391 367.63 70.5873 413.001C115.784 458.372 177.083 483.861 241 483.861Z" fill="white"/>
</mask>
<g mask="url(#mask0)">
<path d="M241 483.861C304.917 483.861 366.216 458.372 411.413 413.001C456.609 367.631 482 306.095 482 241.931C482 177.767 456.609 116.231 411.413 70.86C366.216 25.4893 304.917 0.000244141 241 0.000244141C177.083 0.000244141 115.784 25.4893 70.5873 70.86C25.391 116.231 0 177.767 0 241.931C0 306.095 25.391 367.631 70.5873 413.001C115.784 458.372 177.083 483.861 241 483.861Z" fill="url(#paint0_linear)"/>
<path style="mix-blend-mode:hard-light" fill-rule="evenodd" clip-rule="evenodd" d="M323.241 -169.351L559.12 303.926C331.977 296.063 208.163 271.265 187.377 229.835C166.741 188.404 211.929 55.3424 323.241 -169.351Z" fill="url(#paint1_linear)"/>
<path style="mix-blend-mode:hard-light" d="M385.901 310.73L374.152 269.904C363.793 234.234 339.791 204.129 307.391 186.167C274.991 168.205 236.827 163.845 201.235 174.039L74.7098 210.329C39.1891 220.566 9.15992 244.522 -8.79691 276.947C-26.7537 309.371 -31.1735 347.619 -21.0877 383.309L-9.33895 424.135C0.983236 459.823 24.9862 489.943 57.4037 507.887C89.8211 525.831 128.005 530.132 163.579 519.849L290.104 483.559C307.702 478.609 324.151 470.214 338.503 458.857C352.856 447.499 364.829 433.404 373.733 417.382C382.637 401.361 388.296 383.729 390.384 365.503C392.473 347.277 390.949 328.816 385.901 311.184V310.73Z" fill="url(#paint2_linear)"/>
</g>
<defs>
<linearGradient id="paint0_linear" x1="400.03" y1="324.217" x2="-36.0726" y2="114.961" gradientUnits="userSpaceOnUse">
<stop stop-color="#3D2CD8"/>
<stop offset="1" stop-color="#C86DD7"/>
</linearGradient>
<linearGradient id="paint1_linear" x1="566.681" y1="308.886" x2="97.1213" y2="-60.9892" gradientUnits="userSpaceOnUse">
<stop stop-color="#3023AE"/>
<stop offset="1" stop-color="#C86DD7"/>
</linearGradient>
<linearGradient id="paint2_linear" x1="27.052" y1="565.362" x2="217.62" y2="88.4923" gradientUnits="userSpaceOnUse">
<stop stop-color="#3023AE"/>
<stop offset="1" stop-color="#C86DD7"/>
</linearGradient>
</defs>
</svg>
