<?xml version="1.0" encoding="UTF-8" standalone="no"?><svg width="1996" height="674" viewBox="0 0 1996 674" fill="none" xmlns="http://www.w3.org/2000/svg">
<g filter="url(#filter0_d)">
<path fill-rule="evenodd" clip-rule="evenodd" d="M5.5732e-05 35.9998L68.5 102.854C121.491 156.786 196.485 193.584 306 295.457C419.048 397.33 554.641 439.652 664.156 403.697C777.204 373.734 886.719 331.927 999.766 313.949C1109.28 301.964 1242.45 361.234 1355.5 433.144C1465.02 499.062 1588.45 487.077 1701.5 433.144C1811.02 385.204 1886.49 349.39 1939.48 295.457L1996 242.929L1996 673.5L1939.48 673.5C1886.49 673.5 1773.44 673.5 1663.92 673.5C1550.87 673.5 1441.36 673.5 1331.84 673.5C1218.8 673.5 1109.28 673.5 996.234 673.5C886.719 673.5 777.204 673.5 664.156 673.5C554.641 673.5 445.126 673.5 332.078 673.5C222.563 673.5 109.515 673.5 56.5239 673.5L0 673.5L5.5732e-05 35.9998Z" fill="url(#paint0_linear)"/>
</g>
<g opacity="0.68" filter="url(#filter1_d)">
<path fill-rule="evenodd" clip-rule="evenodd" d="M2.75529e-05 358.331L142.001 457.021C194.992 493.542 195.167 479.562 304.682 548.547C417.73 617.531 532.627 652.125 642.142 627.778C755.19 607.488 897.452 495.458 1010.5 483.285C1120.02 475.169 1220.28 556.221 1333.33 604.917C1442.84 649.554 1576.14 641.438 1689.19 604.917C1798.7 572.453 1891.11 540.367 1944.1 503.846L1996 468.953L1996 673.5L1939.48 673.5C1886.49 673.5 1773.44 673.5 1663.92 673.5C1550.87 673.5 1441.36 673.5 1331.84 673.5C1218.8 673.5 1109.28 673.5 996.234 673.5C886.719 673.5 777.204 673.5 664.156 673.5C554.641 673.5 445.126 673.5 332.078 673.5C222.563 673.5 109.515 673.5 56.5239 673.5L0 673.5L2.75529e-05 358.331Z" fill="url(#paint1_linear)"/>
</g>
<defs>
<filter id="filter0_d" x="-40" y="-0.000244141" width="2076" height="717.5" filterUnits="userSpaceOnUse" color-interpolation-filters="sRGB">
<feFlood flood-opacity="0" result="BackgroundImageFix"/>
<feColorMatrix in="SourceAlpha" type="matrix" values="0 0 0 0 0 0 0 0 0 0 0 0 0 0 0 0 0 0 127 0"/>
<feOffset dy="4"/>
<feGaussianBlur stdDeviation="20"/>
<feColorMatrix type="matrix" values="0 0 0 0 0 0 0 0 0 0 0 0 0 0 0 0 0 0 0.25 0"/>
<feBlend mode="normal" in2="BackgroundImageFix" result="effect1_dropShadow"/>
<feBlend mode="normal" in="SourceGraphic" in2="effect1_dropShadow" result="shape"/>
</filter>
<filter id="filter1_d" x="-40" y="322.331" width="2076" height="395.169" filterUnits="userSpaceOnUse" color-interpolation-filters="sRGB">
<feFlood flood-opacity="0" result="BackgroundImageFix"/>
<feColorMatrix in="SourceAlpha" type="matrix" values="0 0 0 0 0 0 0 0 0 0 0 0 0 0 0 0 0 0 127 0"/>
<feOffset dy="4"/>
<feGaussianBlur stdDeviation="20"/>
<feColorMatrix type="matrix" values="0 0 0 0 0 0 0 0 0 0 0 0 0 0 0 0 0 0 0.25 0"/>
<feBlend mode="normal" in2="BackgroundImageFix" result="effect1_dropShadow"/>
<feBlend mode="normal" in="SourceGraphic" in2="effect1_dropShadow" result="shape"/>
</filter>
<linearGradient id="paint0_linear" x1="998" y1="673.5" x2="998" y2="62.264" gradientUnits="userSpaceOnUse">
<stop stop-color="#65004F"/>
<stop offset="1" stop-color="#A40380"/>
</linearGradient>
<linearGradient id="paint1_linear" x1="998" y1="673.5" x2="998" y2="171.757" gradientUnits="userSpaceOnUse">
<stop stop-color="#FF0066"/>
<stop offset="1" stop-color="#A40380"/>
</linearGradient>
</defs>
</svg>
