<?xml version="1.0" encoding="UTF-8" standalone="no"?><svg width="1527" height="330" viewBox="0 0 1527 330" fill="none" xmlns="http://www.w3.org/2000/svg">
<path d="M421 33.8595V221.712C421 228.142 418.386 233.963 414.156 238.179C409.928 242.395 404.087 245 397.631 245C384.724 245 374.263 234.575 374.263 221.712V139.456C374.263 133.025 371.649 127.204 367.419 122.988C363.191 118.772 357.35 116.168 350.895 116.168C337.987 116.168 327.526 126.592 327.526 139.456V161.526C327.526 167.956 324.913 173.778 320.682 177.994C316.455 182.206 310.613 184.814 304.158 184.814C291.25 184.814 280.79 174.386 280.79 161.526V133.722C280.79 120.861 270.329 110.434 257.421 110.434C244.513 110.434 234.053 120.861 234.053 133.722V148.931C234.053 155.361 231.439 161.182 227.208 165.398C222.969 169.614 217.128 172.219 210.673 172.219C210.614 172.219 210.558 172.219 210.5 172.216C210.442 172.219 210.386 172.219 210.327 172.219C203.872 172.219 198.031 169.614 193.803 165.398C189.573 161.182 186.959 155.361 186.959 148.931V133.722C186.959 120.861 176.498 110.434 163.591 110.434C150.683 110.434 140.222 120.861 140.222 133.722V161.526C140.222 174.386 129.762 184.814 116.854 184.814C110.398 184.814 104.557 182.206 100.33 177.994C96.099 173.778 93.4852 167.956 93.4852 161.526V139.456C93.4852 126.592 83.0249 116.168 70.117 116.168C63.6615 116.168 57.8201 118.772 53.5928 122.988C49.3622 127.204 46.7485 133.025 46.7485 139.456V221.712C46.7485 234.575 36.2879 245 23.3801 245C16.9248 245 11.0834 242.395 6.85588 238.179C2.61371 233.963 0 228.142 0 221.712V33.8595C0 20.996 10.4607 10.5711 23.3684 10.5711C29.8237 10.5711 35.6651 13.176 39.8927 17.392C44.1231 21.6075 46.7368 27.4288 46.7368 33.8595V53.6105C46.7368 66.4735 57.1976 76.8984 70.1054 76.8984C76.5604 76.8984 82.4018 74.294 86.6297 70.078C90.8602 65.862 93.4736 60.0407 93.4736 53.6105V50.091C93.4736 37.2301 103.934 26.8026 116.842 26.8026C123.297 26.8026 129.139 29.4101 133.366 33.6235C137.597 37.839 140.21 43.6603 140.21 50.091V59.3443C140.21 72.2046 150.671 82.6327 163.579 82.6327C170.035 82.6327 175.876 80.0246 180.103 75.8117C184.334 71.5958 186.947 65.7744 186.947 59.3443V33.2884C186.947 20.4249 197.408 10 210.316 10C210.374 10 210.43 10 210.488 10.0031C210.547 10 210.602 10 210.661 10C223.568 10 234.029 20.4249 234.029 33.2884V59.3443C234.029 65.7744 236.643 71.5958 240.874 75.8117C245.101 80.0246 250.942 82.6327 257.398 82.6327C270.305 82.6327 280.766 72.2046 280.766 59.3443V50.091C280.766 43.6603 283.38 37.839 287.61 33.6235C291.838 29.4101 297.679 26.8026 304.135 26.8026C317.042 26.8026 327.503 37.2301 327.503 50.091V53.6105C327.503 60.0407 330.117 65.862 334.347 70.078C338.575 74.294 344.416 76.8984 350.871 76.8984C363.779 76.8984 374.24 66.4735 374.24 53.6105V33.8595C374.24 27.4288 376.853 21.6075 381.084 17.392C385.311 13.176 391.153 10.5711 397.608 10.5711C410.539 10.568 421 20.996 421 33.8595Z" fill="#701347"/>
<path d="M795 36.3812V278.041C795 286.313 792.387 293.802 788.157 299.225C783.93 304.649 778.09 308 771.635 308C758.73 308 748.271 294.589 748.271 278.041V172.224C748.271 163.952 745.657 156.463 741.427 151.04C737.201 145.616 731.36 142.265 724.906 142.265C712 142.265 701.541 155.676 701.541 172.224V200.616C701.541 208.888 698.928 216.377 694.698 221.801C690.471 227.22 684.631 230.575 678.176 230.575C665.27 230.575 654.812 217.16 654.812 200.616V164.848C654.812 148.304 644.353 134.889 631.447 134.889C618.541 134.889 608.082 148.304 608.082 164.848V184.413C608.082 192.685 605.469 200.174 601.239 205.597C597 211.021 591.16 214.372 584.706 214.372C584.648 214.372 584.592 214.372 584.533 214.368C584.475 214.372 584.419 214.372 584.361 214.372C577.907 214.372 572.066 211.021 567.839 205.597C563.609 200.174 560.996 192.685 560.996 184.413V164.848C560.996 148.304 550.537 134.889 537.631 134.889C524.726 134.889 514.267 148.304 514.267 164.848V200.616C514.267 217.16 503.808 230.575 490.902 230.575C484.447 230.575 478.607 227.22 474.38 221.801C470.151 216.377 467.537 208.888 467.537 200.616V172.224C467.537 155.676 457.078 142.265 444.173 142.265C437.718 142.265 431.878 145.616 427.651 151.04C423.421 156.463 420.808 163.952 420.808 172.224V300.041C420.808 316.589 410.349 330 397.443 330C390.989 330 385.148 326.649 380.921 321.225C376.68 315.802 374.067 308.313 374.067 300.041V36.3812C374.067 19.8331 384.526 6.42221 397.431 6.42221C403.886 6.42221 409.726 9.77325 413.953 15.1969C418.183 20.6198 420.796 28.1085 420.796 36.3812V61.7897C420.796 78.3371 431.255 91.748 444.161 91.748C450.615 91.748 456.455 88.3976 460.683 82.974C464.913 77.5504 467.525 70.0617 467.525 61.7897V57.262C467.525 40.7173 477.985 27.303 490.89 27.303C497.344 27.303 503.185 30.6574 507.412 36.0776C511.642 41.5006 514.255 48.9893 514.255 57.262V69.1657C514.255 85.7098 524.714 99.1248 537.62 99.1248C544.074 99.1248 549.915 95.7697 554.141 90.3501C558.371 84.9265 560.984 77.4378 560.984 69.1657V35.6465C560.984 19.0984 571.443 5.6875 584.349 5.6875C584.408 5.6875 584.463 5.6875 584.522 5.69155C584.58 5.6875 584.635 5.6875 584.694 5.6875C597.6 5.6875 608.059 19.0984 608.059 35.6465V69.1657C608.059 77.4378 610.672 84.9265 614.902 90.3501C619.129 95.7697 624.969 99.1248 631.424 99.1248C644.329 99.1248 654.788 85.7098 654.788 69.1657V57.262C654.788 48.9893 657.402 41.5006 661.631 36.0776C665.858 30.6574 671.699 27.303 678.153 27.303C691.059 27.303 701.518 40.7173 701.518 57.262V61.7897C701.518 70.0617 704.131 77.5504 708.361 82.974C712.588 88.3976 718.428 91.748 724.883 91.748C737.788 91.748 748.247 78.3371 748.247 61.7897V36.3812C748.247 28.1085 750.86 20.6198 755.09 15.1969C759.317 9.77325 765.157 6.42221 771.612 6.42221C784.541 6.41816 795 19.8331 795 36.3812Z" fill="#701347"/>
<path d="M1527 35.2197V202.288C1527 208.007 1524.49 213.184 1520.42 216.934C1516.35 220.683 1510.73 223 1504.52 223C1492.1 223 1482.04 213.729 1482.04 202.288V129.133C1482.04 123.414 1479.52 118.237 1475.46 114.488C1471.39 110.738 1465.77 108.421 1459.56 108.421C1447.14 108.421 1437.08 117.693 1437.08 129.133V148.762C1437.08 154.48 1434.56 159.658 1430.49 163.407C1426.43 167.154 1420.81 169.473 1414.6 169.473C1402.18 169.473 1392.12 160.199 1392.12 148.762V124.033C1392.12 112.596 1382.06 103.322 1369.64 103.322C1357.22 103.322 1347.16 112.596 1347.16 124.033V137.56C1347.16 143.278 1344.64 148.456 1340.57 152.205C1336.5 155.955 1330.88 158.271 1324.67 158.271C1324.61 158.271 1324.56 158.271 1324.5 158.269C1324.44 158.271 1324.39 158.271 1324.33 158.271C1318.12 158.271 1312.5 155.955 1308.44 152.205C1304.37 148.456 1301.85 143.278 1301.85 137.56V124.033C1301.85 112.596 1291.79 103.322 1279.37 103.322C1266.96 103.322 1256.89 112.596 1256.89 124.033V148.762C1256.89 160.199 1246.83 169.473 1234.41 169.473C1228.2 169.473 1222.58 167.154 1218.52 163.407C1214.45 159.658 1211.93 154.48 1211.93 148.762V129.133C1211.93 117.693 1201.87 108.421 1189.45 108.421C1183.24 108.421 1177.62 110.738 1173.56 114.488C1169.49 118.237 1166.97 123.414 1166.97 129.133V202.288C1166.97 213.729 1156.91 223 1144.49 223C1138.28 223 1132.66 220.683 1128.6 216.934C1124.51 213.184 1122 208.007 1122 202.288V35.2197C1122 23.7794 1132.06 14.5079 1144.48 14.5079C1150.69 14.5079 1156.31 16.8246 1160.38 20.5742C1164.45 24.3233 1166.96 29.5005 1166.96 35.2197V52.7855C1166.96 64.2254 1177.02 73.4969 1189.44 73.4969C1195.65 73.4969 1201.27 71.1806 1205.34 67.4311C1209.41 63.6816 1211.92 58.5043 1211.92 52.7855V49.6554C1211.92 38.2174 1221.98 28.9436 1234.4 28.9436C1240.61 28.9436 1246.23 31.2626 1250.3 35.0098C1254.37 38.7589 1256.88 43.9362 1256.88 49.6554V57.8849C1256.88 69.3224 1266.95 78.5967 1279.36 78.5967C1285.57 78.5967 1291.19 76.2772 1295.26 72.5304C1299.33 68.7809 1301.84 63.6037 1301.84 57.8849V34.7118C1301.84 23.2715 1311.91 14 1324.32 14C1324.38 14 1324.43 14 1324.49 14.0028C1324.55 14 1324.6 14 1324.65 14C1337.07 14 1347.14 23.2715 1347.14 34.7118V57.8849C1347.14 63.6037 1349.65 68.7809 1353.72 72.5304C1357.79 76.2772 1363.41 78.5967 1369.62 78.5967C1382.03 78.5967 1392.1 69.3224 1392.1 57.8849V49.6554C1392.1 43.9362 1394.61 38.7589 1398.68 35.0098C1402.75 31.2626 1408.37 28.9436 1414.58 28.9436C1426.99 28.9436 1437.06 38.2174 1437.06 49.6554V52.7855C1437.06 58.5043 1439.57 63.6816 1443.64 67.4311C1447.71 71.1806 1453.33 73.4969 1459.54 73.4969C1471.95 73.4969 1482.02 64.2254 1482.02 52.7855V35.2197C1482.02 29.5005 1484.53 24.3233 1488.6 20.5742C1492.67 16.8246 1498.29 14.5079 1504.5 14.5079C1516.94 14.5051 1527 23.7794 1527 35.2197Z" fill="#701347"/>
<path d="M1166.93 24.2656V215.315C1166.93 221.855 1164.33 227.775 1160.12 232.063C1155.91 236.351 1150.1 239 1143.68 239C1130.83 239 1120.42 228.398 1120.42 215.315V131.66C1120.42 125.119 1117.82 119.199 1113.61 114.912C1109.4 110.624 1103.59 107.975 1097.16 107.975C1084.31 107.975 1073.9 118.577 1073.9 131.66V154.105C1073.9 160.645 1071.3 166.565 1067.09 170.853C1062.88 175.138 1057.07 177.79 1050.65 177.79C1037.8 177.79 1027.39 167.185 1027.39 154.105V125.828C1027.39 112.748 1016.98 102.143 1004.13 102.143C991.284 102.143 980.873 112.748 980.873 125.828V189.295C980.873 195.835 978.272 201.755 974.061 206.043C969.842 210.331 964.028 212.98 957.604 212.98C957.546 212.98 957.49 212.98 957.432 212.977C957.374 212.98 957.318 212.98 957.26 212.98C950.836 212.98 945.022 210.331 940.814 206.043C936.604 201.755 934.003 195.835 934.003 189.295V125.828C934.003 112.748 923.592 102.143 910.745 102.143C897.899 102.143 887.488 112.748 887.488 125.828V154.105C887.488 167.185 877.077 177.79 864.23 177.79C857.805 177.79 851.992 175.138 847.784 170.853C843.574 166.565 840.972 160.645 840.972 154.105V131.66C840.972 118.577 830.562 107.975 817.715 107.975C811.29 107.975 805.477 110.624 801.269 114.912C797.059 119.199 794.458 125.119 794.458 131.66V215.315C794.458 228.398 784.047 239 771.2 239C764.775 239 758.962 236.351 754.754 232.063C750.532 227.775 747.931 221.855 747.931 215.315V24.2656C747.931 11.1831 758.342 0.580841 771.188 0.580841C777.613 0.580841 783.427 3.23008 787.634 7.51784C791.845 11.8051 794.446 17.7255 794.446 24.2656V44.3528C794.446 57.4348 804.857 68.0371 817.704 68.0371C824.128 68.0371 829.942 65.3884 834.15 61.1006C838.36 56.8129 840.961 50.8925 840.961 44.3528V40.7734C840.961 27.6936 851.372 17.0886 864.219 17.0886C870.643 17.0886 876.457 19.7405 880.665 24.0256C884.875 28.3128 887.476 34.2332 887.476 40.7734V50.1842C887.476 63.2634 897.887 73.869 910.734 73.869C917.159 73.869 922.972 71.2165 927.18 66.932C931.39 62.6442 933.991 56.7238 933.991 50.1842V23.6848C933.991 10.6023 944.402 0 957.249 0C957.307 0 957.362 -1.75787e-06 957.421 0.00319846C957.479 -1.75787e-06 957.534 0 957.592 0C970.438 0 980.85 10.6023 980.85 23.6848V50.1842C980.85 56.7238 983.451 62.6442 987.661 66.932C991.869 71.2165 997.682 73.869 1004.11 73.869C1016.95 73.869 1027.36 63.2634 1027.36 50.1842V40.7734C1027.36 34.2332 1029.97 28.3128 1034.18 24.0256C1038.38 19.7405 1044.2 17.0886 1050.62 17.0886C1063.47 17.0886 1073.88 27.6936 1073.88 40.7734V44.3528C1073.88 50.8925 1076.48 56.8129 1080.69 61.1006C1084.9 65.3884 1090.71 68.0371 1097.14 68.0371C1109.98 68.0371 1120.4 57.4348 1120.4 44.3528V24.2656C1120.4 17.7255 1123 11.8051 1127.21 7.51784C1131.41 3.23008 1137.23 0.580841 1143.65 0.580841C1156.52 0.577641 1166.93 11.1831 1166.93 24.2656Z" fill="#701347"/>
</svg>
